<svg xmlns="http://www.w3.org/2000/svg" height="300" width="300" viewBox="0 0 300 300"><path d="m149.78 6.6572c-5.1286 0-12.316 3.6745-32.225 47.328-7.9149 17.324-14.982 34.85-17.728 41.594-7.2688 0.4442-25.845 1.7767-44.622 3.8765-47.29 5.375-53.024 10.905-54.72 15.665-0.28262 0.81-0.485 1.7-0.485 2.75 0 5.4112 5.654 15.224 35.416 42.522 14.093 12.922 28.55 25.118 34.203 29.843-1.8172 7.1073-6.3399 25.36-10.136 44.138-4.5632 22.331-6.1788 35.657-6.1788 43.855 0 9.0456 1.9794 11.791 4.0792 13.407 4.2805 3.1902 11.953 4.3613 54.031-19.383 5.9625-3.362 11.821-6.7862 17.205-9.993-0.0341-5.2292-0.0513-19.523-0.0513-22.236l-2.6524 0.45824c-1.6908 0.30973-3.8237 0.44097-6.3989 0.40382-2.574-0.0359-5.246-0.30531-8.0126-0.80685-2.7678-0.49711-5.3425-1.6499-7.7255-3.4562-2.3818-1.8063-4.072-4.1709-5.0714-7.0898l-1.1531-2.6532c-0.76847-1.7663-1.9784-3.7283-3.6312-5.8791-1.6528-2.1528-3.3239-3.612-5.0147-4.3805l-0.80764-0.57813c-0.53789-0.38403-1.037-0.84749-1.4986-1.385-0.46116-0.53749-0.80658-1.075-1.0372-1.6137-0.23099-0.53911-0.03929-0.98132 0.57655-1.3282 0.61583-0.34688 1.7285-0.51503 3.3434-0.51503l2.3054 0.34388c1.5374 0.30811 3.4389 1.2286 5.7071 2.7668 2.2671 1.537 4.1306 3.535 5.5912 5.9935 1.7687 3.1522 3.8996 5.5544 6.3988 7.2073 2.4972 1.6528 5.0152 2.4782 7.5512 2.4782s4.7261-0.19256 6.5716-0.57498c1.8434-0.38444 3.5733-0.96237 5.1882-1.7304 0.69174-5.152 2.5753-9.1099 5.6488-11.876-4.3807-0.46035-8.319-1.154-11.817-2.0759-3.4963-0.92314-7.1097-2.4208-10.837-4.4981-3.7293-2.0744-6.8227-4.6508-9.2816-7.7239-2.4593-3.0747-4.4781-7.1111-6.0526-12.106-1.5753-4.9969-2.363-10.761-2.363-17.294 0-9.3021 3.0366-17.218 9.1089-23.751-2.8445-6.9934-2.5756-14.833 0.80686-23.519 2.2291-0.69255 5.5343-0.17262 9.9149 1.5561 4.3815 1.7296 7.5902 3.2113 9.6279 4.4397 2.0377 1.228 3.6702 2.2683 4.9003 3.1123 7.1497-1.9977 14.528-2.9963 22.137-2.9963 7.6088 0 14.988 0.99862 22.138 2.9963l4.3813-2.766c2.996-1.8455 6.5337-3.5364 10.605-5.0738 2.8007-1.0564 5.1482-1.586 7.0417-1.5893 0.86064-0.002 1.627 0.10537 2.2999 0.3218 3.4575 8.6858 3.7658 16.525 0.92043 23.519 6.0719 6.5338 9.1097 14.452 9.1097 23.752 0 6.533-0.7901 12.315-2.363 17.35-1.5749 5.0361-3.6106 9.0684-6.1078 12.106-2.5001 3.0372-5.6135 5.5931-9.3408 7.6671-3.7281 2.0756-7.343 3.5741-10.839 4.4973-3.4979 0.92313-7.4359 1.6171-11.817 2.0783 3.9954 3.4575 5.9934 8.9152 5.9934 16.371v30.153c5.2196 3.1018 10.868 6.3971 16.617 9.6365 41.553 23.502 49.508 22.614 53.667 19.949 2.4633-1.5749 4.644-4.281 4.644-13.811 0-8.2784-1.6151-21.645-6.0976-43.855-3.8363-19.02-8.4803-37.717-10.297-44.905 5.6131-4.644 19.869-16.597 33.8-29.277 29.49-26.95 35.06-36.56 35.06-41.97-0.0404-1.0096-0.20144-1.8581-0.5245-2.7061-1.696-4.9266-7.3903-10.217-55.041-15.789-18.98-2.221-37.797-3.6341-45.107-4.1187-2.67-6.822-9.65-24.268-17.49-41.592-19.75-43.572-26.89-47.247-32.06-47.247z" fill="#fff"/></svg>
